<svg width="30" height="31" viewBox="0 0 30 31" fill="none" xmlns="http://www.w3.org/2000/svg">
<path fill-rule="evenodd" clip-rule="evenodd" d="M15 9.04169C13.3424 9.04169 11.7527 9.72212 10.5806 10.9333C9.40848 12.1445 8.75 13.7872 8.75 15.5C8.75 17.2129 9.40848 18.8556 10.5806 20.0668C11.7527 21.2779 13.3424 21.9584 15 21.9584C16.6576 21.9584 18.2473 21.2779 19.4194 20.0668C20.5915 18.8556 21.25 17.2129 21.25 15.5C21.25 13.7872 20.5915 12.1445 19.4194 10.9333C18.2473 9.72212 16.6576 9.04169 15 9.04169ZM11.25 15.5C11.25 16.5277 11.6451 17.5134 12.3483 18.2401C13.0516 18.9668 14.0054 19.375 15 19.375C15.9946 19.375 16.9484 18.9668 17.6517 18.2401C18.3549 17.5134 18.75 16.5277 18.75 15.5C18.75 14.4723 18.3549 13.4867 17.6517 12.76C16.9484 12.0333 15.9946 11.625 15 11.625C14.0054 11.625 13.0516 12.0333 12.3483 12.76C11.6451 13.4867 11.25 14.4723 11.25 15.5Z" fill="#F8F8F8"/>
<path d="M22.5 6.45837C22.1685 6.45837 21.8505 6.59446 21.6161 6.83669C21.3817 7.07893 21.25 7.40747 21.25 7.75004C21.25 8.09261 21.3817 8.42115 21.6161 8.66339C21.8505 8.90562 22.1685 9.04171 22.5 9.04171C22.8315 9.04171 23.1495 8.90562 23.3839 8.66339C23.6183 8.42115 23.75 8.09261 23.75 7.75004C23.75 7.40747 23.6183 7.07893 23.3839 6.83669C23.1495 6.59446 22.8315 6.45837 22.5 6.45837Z" fill="#F8F8F8"/>
<path fill-rule="evenodd" clip-rule="evenodd" d="M6.25 1.29169C4.92392 1.29169 3.65215 1.83603 2.71447 2.80497C1.77678 3.77391 1.25 5.08807 1.25 6.45835V24.5417C1.25 25.912 1.77678 27.2261 2.71447 28.1951C3.65215 29.164 4.92392 29.7084 6.25 29.7084H23.75C25.0761 29.7084 26.3479 29.164 27.2855 28.1951C28.2232 27.2261 28.75 25.912 28.75 24.5417V6.45835C28.75 5.08807 28.2232 3.77391 27.2855 2.80497C26.3479 1.83603 25.0761 1.29169 23.75 1.29169H6.25ZM23.75 3.87502H6.25C5.58696 3.87502 4.95107 4.14719 4.48223 4.63166C4.01339 5.11613 3.75 5.77321 3.75 6.45835V24.5417C3.75 25.2268 4.01339 25.8839 4.48223 26.3684C4.95107 26.8529 5.58696 27.125 6.25 27.125H23.75C24.413 27.125 25.0489 26.8529 25.5178 26.3684C25.9866 25.8839 26.25 25.2268 26.25 24.5417V6.45835C26.25 5.77321 25.9866 5.11613 25.5178 4.63166C25.0489 4.14719 24.413 3.87502 23.75 3.87502Z" fill="#F8F8F8"/>
</svg>
