<svg width="44" height="35" viewBox="0 0 44 35" fill="none" xmlns="http://www.w3.org/2000/svg">
<path d="M39.875 5.46875H4.125C3.36445 5.46875 2.75 5.95752 2.75 6.5625V28.4375C2.75 29.0425 3.36445 29.5312 4.125 29.5312H39.875C40.6355 29.5312 41.25 29.0425 41.25 28.4375V6.5625C41.25 5.95752 40.6355 5.46875 39.875 5.46875ZM38.1562 9.25586V27.0703H5.84375V9.25586L4.65781 8.521L6.34648 6.79492L8.18555 7.93311H35.8187L37.6578 6.79492L39.3465 8.521L38.1562 9.25586ZM35.8187 7.92969L22 16.4746L8.18125 7.92969L6.34219 6.7915L4.65352 8.51758L5.83945 9.25244L20.5176 18.3306C20.9397 18.5914 21.459 18.733 21.9936 18.733C22.5281 18.733 23.0474 18.5914 23.4695 18.3306L38.1562 9.25586L39.3422 8.521L37.6535 6.79492L35.8187 7.92969Z" fill="white"/>
</svg>
