<svg width="42" height="35" viewBox="0 0 42 35" fill="none" xmlns="http://www.w3.org/2000/svg">
<path d="M34.0147 29.0748H7.98349C6.82317 29.0748 5.71037 28.6907 4.8899 28.007C4.06943 27.3233 3.60849 26.3959 3.60849 25.429V9.57107C3.60849 8.60413 4.06943 7.6768 4.8899 6.99307C5.71037 6.30935 6.82317 5.92523 7.98349 5.92523H34.0147C35.1751 5.92523 36.2879 6.30935 37.1083 6.99307C37.9288 7.6768 38.3897 8.60413 38.3897 9.57107V25.429C38.3897 26.3959 37.9288 27.3233 37.1083 28.007C36.2879 28.6907 35.1751 29.0748 34.0147 29.0748ZM7.98349 7.38357C7.2873 7.38357 6.61962 7.61403 6.12733 8.02427C5.63505 8.4345 5.35849 8.9909 5.35849 9.57107V25.429C5.35849 26.0091 5.63505 26.5655 6.12733 26.9758C6.61962 27.386 7.2873 27.6165 7.98349 27.6165H34.0147C34.7109 27.6165 35.3786 27.386 35.8709 26.9758C36.3632 26.5655 36.6397 26.0091 36.6397 25.429V9.57107C36.6397 8.9909 36.3632 8.4345 35.8709 8.02427C35.3786 7.61403 34.7109 7.38357 34.0147 7.38357H7.98349Z" fill="white"/>
<path d="M25.494 16.259L18.55 12.2967C18.2788 12.1423 17.9622 12.0525 17.6343 12.037C17.3065 12.0214 16.9797 12.0806 16.6892 12.2082C16.3987 12.3359 16.1554 12.5271 15.9856 12.7614C15.8158 12.9956 15.7259 13.264 15.7255 13.5377V21.4623C15.7259 21.736 15.8158 22.0044 15.9856 22.2386C16.1554 22.4729 16.3987 22.6641 16.6892 22.7918C16.9797 22.9194 17.3065 22.9786 17.6343 22.9631C17.9622 22.9475 18.2788 22.8577 18.55 22.7033L25.501 18.7411C25.7428 18.6025 25.9404 18.417 26.0767 18.2005C26.213 17.9839 26.2839 17.743 26.2832 17.4985C26.2825 17.254 26.2103 17.0133 26.0727 16.7973C25.9352 16.5813 25.7366 16.3965 25.494 16.259Z" fill="white"/>
</svg>
