<svg width="28" height="27" viewBox="0 0 28 27" fill="none" xmlns="http://www.w3.org/2000/svg">
<path d="M16.625 11.8125C16.625 11.1412 16.3484 10.4973 15.8562 10.0226C15.3639 9.54793 14.6962 9.28125 14 9.28125C13.3038 9.28125 12.6361 9.54793 12.1438 10.0226C11.6516 10.4973 11.375 11.1412 11.375 11.8125C11.375 12.4838 11.6516 13.1277 12.1438 13.6024C12.6361 14.0771 13.3038 14.3438 14 14.3438C14.6962 14.3438 15.3639 14.0771 15.8562 13.6024C16.3484 13.1277 16.625 12.4838 16.625 11.8125ZM24.5 11.8125C24.5 16.6624 19.0803 21.9645 16.0283 24.5666C15.4702 25.0472 14.7482 25.3128 14 25.3128C13.2518 25.3128 12.5298 25.0472 11.9718 24.5666C8.91975 21.9645 3.5 16.6624 3.5 11.8125C3.5 10.4829 3.77159 9.16625 4.29926 7.93783C4.82694 6.70941 5.60036 5.59324 6.57538 4.65304C7.55039 3.71285 8.70791 2.96705 9.98182 2.45822C11.2557 1.94939 12.6211 1.6875 14 1.6875C15.3789 1.6875 16.7443 1.94939 18.0182 2.45822C19.2921 2.96705 20.4496 3.71285 21.4246 4.65304C22.3996 5.59324 23.1731 6.70941 23.7007 7.93783C24.2284 9.16625 24.5 10.4829 24.5 11.8125ZM22.75 11.8125C22.75 9.57474 21.8281 7.42862 20.1872 5.84629C18.5462 4.26395 16.3206 3.375 14 3.375C11.6794 3.375 9.45376 4.26395 7.81282 5.84629C6.17187 7.42862 5.25 9.57474 5.25 11.8125C5.25 13.6823 6.32625 15.8541 7.9975 18.0276C9.632 20.1504 11.6497 22.0387 13.1302 23.3027C13.3685 23.5109 13.6785 23.6262 14 23.6262C14.3215 23.6262 14.6315 23.5109 14.8697 23.3027C16.3502 22.0387 18.3698 20.1521 20.0025 18.0276C21.6737 15.8541 22.75 13.6823 22.75 11.8125Z" fill="white"/>
</svg>
