<svg width="32" height="32" viewBox="0 0 32 32" fill="none" xmlns="http://www.w3.org/2000/svg">
<path d="M23.5 16.866C23.652 16.7782 23.7782 16.652 23.866 16.5C23.9538 16.348 24 16.1755 24 16C24 15.8245 23.9538 15.652 23.866 15.5C23.7782 15.348 23.652 15.2218 23.5 15.134L11.5 8.206C11.348 8.11823 11.1755 8.07202 11 8.07202C10.8245 8.07202 10.652 8.11822 10.5 8.20599C10.348 8.29376 10.2218 8.41999 10.134 8.57201C10.0462 8.72402 10 8.89646 10 9.072V22.928C10 23.1035 10.0462 23.276 10.134 23.428C10.2218 23.58 10.348 23.7062 10.5 23.794C10.652 23.8818 10.8245 23.928 11 23.928C11.1755 23.928 11.348 23.8818 11.5 23.794L23.5 16.866Z" fill="white"/>
<path d="M6 1C5.34339 1 4.69321 1.12933 4.08658 1.3806C3.47995 1.63188 2.92876 2.00017 2.46447 2.46447C1.52678 3.40215 1 4.67392 1 6V26C1 27.3261 1.52678 28.5979 2.46447 29.5355C2.92876 29.9998 3.47995 30.3681 4.08658 30.6194C4.69321 30.8707 5.34339 31 6 31H26C27.3261 31 28.5979 30.4732 29.5355 29.5355C30.4732 28.5979 31 27.3261 31 26V6C31 5.34339 30.8707 4.69321 30.6194 4.08658C30.3681 3.47995 29.9998 2.92876 29.5355 2.46447C29.0712 2.00017 28.52 1.63188 27.9134 1.3806C27.3068 1.12933 26.6566 1 26 1H6ZM3 6C3 5.20435 3.31607 4.44129 3.87868 3.87868C4.44129 3.31607 5.20435 3 6 3H26C26.7956 3 27.5587 3.31607 28.1213 3.87868C28.6839 4.44129 29 5.20435 29 6V26C29 26.7956 28.6839 27.5587 28.1213 28.1213C27.5587 28.6839 26.7956 29 26 29H6C5.20435 29 4.44129 28.6839 3.87868 28.1213C3.31607 27.5587 3 26.7956 3 26V6Z" fill="white"/>
</svg>
