<svg width="57" height="44" viewBox="0 0 57 44" fill="none" xmlns="http://www.w3.org/2000/svg">
<g clip-path="url(#clip0_11_45)">
<path d="M23.1965 36.0798C22.6017 36.0798 22.2052 36.5198 22.2052 37.2531C22.2052 37.8398 22.6017 38.4265 23.3948 38.4265C23.9896 38.4265 24.3861 37.9865 24.3861 37.2531C24.3861 36.6665 23.9896 36.0798 23.1965 36.0798ZM7.33565 36.0798C7.33565 36.2265 7.13739 36.5198 7.13739 36.6665L6.93913 37.3998H7.93043L7.73217 36.6665C7.53391 36.5198 7.53391 36.3731 7.33565 36.0798ZM3.56869 36.0798H3.17217V37.1065H3.56869C4.16348 37.1065 4.36174 36.9598 4.36174 36.5198C4.36174 36.0798 4.16348 36.0798 3.56869 36.0798ZM18.8348 36.0798H18.4383V37.1065H18.8348C19.4296 37.1065 19.6278 36.9598 19.6278 36.5198C19.6278 36.0798 19.2313 36.0798 18.8348 36.0798ZM27.5583 36.0798H27.1617V36.9598H27.5583C28.153 36.9598 28.3513 36.8131 28.3513 36.5198C28.3513 36.2265 27.9548 36.0798 27.5583 36.0798ZM57.2974 10.7065L28.3513 0.146466C28.186 0.0695784 28.0005 0.0196537 27.807 2.40309e-05C27.6136 -0.0196056 27.4167 -0.0084887 27.2296 0.0326329C27.0424 0.0737544 26.8692 0.143935 26.7216 0.23849C26.574 0.333046 26.4554 0.449802 26.3737 0.580966L26.3712 0.586466V0.733133L25.7764 1.46647L22.406 6.5998H34.5395C36.2693 6.5998 37.672 7.63747 37.672 8.91713V8.9483V42.6798C37.8703 42.5331 38.0686 42.3865 38.0686 42.2398L57.8946 12.1731C57.9924 12.0497 58.0549 11.9127 58.0781 11.7706C58.1014 11.6286 58.085 11.4845 58.0299 11.3474C57.9749 11.2102 57.8823 11.0829 57.758 10.9733C57.6337 10.8637 57.4803 10.7741 57.3073 10.7101L57.2999 10.7083L57.2974 10.7065ZM22.8 26.8398C21.4686 26.5023 20.0795 26.3054 18.6737 26.255L18.6365 26.2531V30.5065C19.6504 30.169 20.5493 29.668 21.2676 29.0402C21.9859 28.4124 22.5052 27.6738 22.7876 26.8783L22.8 26.8398ZM23.3948 17.7465C21.9428 18.1393 20.4081 18.3385 18.862 18.335L18.6266 18.3331H18.639V20.6798H23.992C23.9749 19.6598 23.7656 18.6466 23.37 17.6695L23.3973 17.7465H23.3948ZM18.6365 13.0531V17.0131L18.8224 17.015C20.2573 17.015 21.6253 16.7986 22.8669 16.4081L22.8 16.4265C22.542 15.6581 22.0308 14.9489 21.3121 14.3622C20.5934 13.7755 19.6895 13.3295 18.6811 13.0641L18.6365 13.0531Z" fill="#01455E"/>
<path d="M25.3774 25.96C26.0961 26.2515 26.6512 26.7098 26.956 27.2635L26.9635 27.28C28.554 25.936 29.5252 24.2524 29.7367 22.473L29.7391 22.44H25.9722C26.072 23.6549 25.8609 24.8727 25.3501 26.0297L25.3774 25.9618V25.96ZM9.71478 28.4533C10.3393 28.864 11.058 29.2087 11.8436 29.4653L11.8957 29.48C11.348 28.93 10.8796 28.3012 10.5326 27.6283L10.5078 27.5733C10.139 27.8011 9.86558 28.1019 9.71974 28.4405L9.71478 28.4533ZM25.5757 14.52C24.8322 14.0892 23.992 13.6547 23.1197 13.2532L22.9983 13.2C23.7046 13.8325 24.3043 14.5585 24.7529 15.3432L24.7826 15.4C25.1791 15.4 25.5757 14.96 25.5757 14.52ZM23.3948 29.48C24.1606 29.2105 24.8148 28.8658 25.3774 28.4533C25.3445 28.2728 25.2568 28.1002 25.1207 27.9484C24.9846 27.7966 24.8038 27.6696 24.5918 27.577L24.5843 27.5733C24.3811 28.3048 23.9648 28.9465 23.3849 29.4892L23.3948 29.48ZM26.1704 20.8267H29.9374C29.6773 19.0149 28.7792 17.2853 27.3327 15.8107L27.36 15.84C26.9831 16.4087 26.364 16.8699 25.598 17.1527L25.5757 17.16C25.7739 18.3333 25.9722 19.5067 26.1704 20.8267ZM23.9896 22.44H18.6365V24.64C20.3013 24.6711 21.9443 24.9278 23.484 25.3972L23.3948 25.3733C23.7751 24.4231 23.9752 23.4383 23.9896 22.4473V22.44ZM11.6974 13.64C10.9682 13.8454 10.2943 14.1452 9.70735 14.5255L9.71478 14.52C9.72945 14.6882 9.78941 14.8525 9.89112 15.0033C9.99284 15.1541 10.1343 15.2884 10.3071 15.3982L10.3096 15.4C10.6268 14.7198 11.1001 14.1332 11.7023 13.6345L11.6974 13.64ZM9.71478 17.0133C9.09884 16.7016 8.56545 16.3089 8.14109 15.8547L8.12869 15.84C6.52866 17.2937 5.56177 19.072 5.35552 20.9403L5.35304 20.9733H8.92174C8.96139 19.5947 9.24042 18.2256 9.75196 16.8997L9.71478 17.0133ZM16.4557 30.2133V26.2533C15.0562 26.3667 13.6735 26.5735 12.3244 26.8712L12.4904 26.84C12.7351 27.5908 13.2185 28.2876 13.9004 28.8724C14.5823 29.4572 15.443 29.9131 16.411 30.2023L16.4557 30.2133Z" fill="#01455E"/>
<path d="M35.2904 9.38665V9.34265C35.2904 9.06123 35.1488 8.7899 34.8931 8.58148C34.6375 8.37306 34.2862 8.24248 33.9076 8.21515H1.58361C1.54396 8.21149 1.49687 8.21149 1.44978 8.21149C1.24657 8.21185 1.0457 8.24355 0.859973 8.30455C0.674248 8.36555 0.50775 8.45452 0.371103 8.56579C0.234456 8.67705 0.13066 8.80817 0.0663373 8.95077C0.00201455 9.09336 -0.0214226 9.24431 -0.00247871 9.39399V9.39032V42.8468C-0.00247871 43.4867 0.698869 44.0037 1.5613 44.0037H33.7019C34.1122 43.9824 34.4985 43.8525 34.7898 43.6376C35.0811 43.4228 35.258 43.1375 35.288 42.834V42.8303L35.2904 9.38665ZM3.37043 20.5333C3.66952 18.0479 5.13683 15.7187 7.51714 13.9508C9.89745 12.1829 13.0402 11.0881 16.3987 10.857L16.4557 10.8533V10.7067H18.6365V10.8533C20.4979 10.9617 22.3123 11.3402 23.9759 11.9672C25.6396 12.5943 27.12 13.4576 28.3327 14.5079C29.5454 15.5582 30.4665 16.7749 31.0435 18.0885C31.6206 19.4022 31.8422 20.7871 31.6957 22.1641C31.5493 23.5411 31.0376 24.8833 30.19 26.114C29.3423 27.3447 28.1753 28.4399 26.7556 29.337C25.3358 30.2341 23.6911 30.9155 21.9153 31.3424C20.1395 31.7692 18.2675 31.9332 16.4061 31.8248L16.4557 31.8267C9.07787 31.3445 3.33822 26.796 3.33822 21.2538C3.33822 21.0008 3.35061 20.7478 3.37291 20.5003L3.37043 20.5333ZM3.5687 37.6933H3.17217V38.8667H2.18087V35.4933H3.5687C4.06736 35.4524 4.56772 35.5585 4.96148 35.7885L4.95652 35.7867C5.35304 35.9333 5.35304 36.2267 5.35304 36.52C5.34721 36.7922 5.20605 37.0532 4.95652 37.2533C4.78782 37.3922 4.58144 37.5031 4.35084 37.5789C4.12024 37.6547 3.87061 37.6937 3.61826 37.6933H3.56622H3.5687ZM8.32696 38.8667L7.93043 37.9867H6.74087L6.34435 38.8667H5.35304L6.74087 35.4933H8.1287L9.51652 38.8667H8.32696ZM11.1026 38.8667C10.6903 38.8903 10.2765 38.838 9.89817 38.7145L9.91304 38.72L10.1113 38.1333C10.4886 38.2547 10.9007 38.3051 11.3108 38.28H11.3009C11.6974 38.28 11.8957 38.1333 11.8957 37.9867C11.8957 37.84 11.6974 37.6933 11.1026 37.5467C10.5078 37.2533 9.91304 36.96 9.91304 36.52C9.91304 35.9333 10.5078 35.4933 11.6974 35.4933C12.1097 35.4697 12.5235 35.5219 12.9018 35.6455L12.887 35.64L12.6887 36.2267C12.3898 36.0917 12.0358 36.0398 11.69 36.08H11.6974C11.3009 36.08 11.1026 36.2267 11.1026 36.3733C11.1026 36.52 11.3009 36.6667 11.8957 36.8133C12.5648 36.905 13.0679 37.3267 13.0852 37.8382C13.0852 38.4248 12.4904 38.8667 11.1026 38.8667ZM14.8696 38.8667C14.4573 38.8903 14.0435 38.838 13.6651 38.7145L13.68 38.72V38.1333C14.0573 38.2547 14.4694 38.3051 14.8795 38.28H14.8696C15.2661 38.28 15.6626 38.1333 15.6626 37.9867C15.6626 37.84 15.4643 37.6933 14.8696 37.5467C14.5437 37.5247 14.2408 37.4134 14.0202 37.2346C13.7996 37.0559 13.6774 36.8225 13.6775 36.5805L13.68 36.5163V36.52C13.68 35.9333 14.2748 35.4933 15.4643 35.4933C15.8767 35.4697 16.2905 35.5219 16.6688 35.6455L16.6539 35.64L16.4557 36.2267C16.1568 36.0917 15.8028 36.0398 15.4569 36.08H15.4643C15.0678 36.08 14.8696 36.2267 14.8696 36.3733C14.8696 36.52 15.0678 36.6667 15.6626 36.8133C16.3317 36.905 16.8348 37.3267 16.8522 37.8382C16.7689 38.1686 16.5132 38.4633 16.1403 38.6554C15.7675 38.8475 15.3075 38.9234 14.8597 38.8667H14.8696ZM20.2226 37.4C20.0542 37.5449 19.8318 37.6498 19.5831 37.7016C19.3345 37.7535 19.0708 37.75 18.8249 37.6915L18.8348 37.6933H18.4383V38.8667H17.447V35.4933H18.8348C19.3334 35.4524 19.8338 35.5585 20.2276 35.7885L20.2226 35.7867C20.6191 35.9333 20.6191 36.2267 20.6191 36.52C20.5745 36.85 20.4333 37.1488 20.2152 37.4092L20.2226 37.4ZM25.3774 37.1067C25.4177 37.32 25.3974 37.5373 25.3176 37.7445C25.2379 37.9517 25.1005 38.1443 24.9144 38.31C24.7282 38.4757 24.4973 38.6108 24.2365 38.7066C23.9757 38.8025 23.6907 38.857 23.3997 38.8667H22.9983C22.4215 38.8628 21.8697 38.6916 21.4619 38.3899C21.054 38.0882 20.8226 37.68 20.8174 37.2533V37.1067C20.7734 36.6813 20.9546 36.26 21.3227 35.9316C21.6907 35.6032 22.2169 35.3934 22.7901 35.3467H23.0082C23.5509 35.3467 24.0742 35.4964 24.4756 35.7666C24.8771 36.0369 25.1279 36.4081 25.1791 36.8078V36.8152L25.3774 37.1067ZM28.3513 38.8667C28.153 38.5733 28.153 38.4267 27.9548 38.1333C27.7565 37.6933 27.5583 37.5467 27.1617 37.5467H26.7652V38.8667H25.7739V35.4933H27.1617C27.4086 35.4619 27.6618 35.4721 27.9025 35.5232C28.1433 35.5743 28.3653 35.665 28.552 35.7885L28.5496 35.7867C28.7985 35.9863 28.9397 36.2466 28.9461 36.5182C28.9395 36.7043 28.8624 36.8871 28.7235 37.0424C28.5846 37.1977 28.3895 37.3209 28.1605 37.3982L28.153 37.4C28.5496 37.5467 28.5496 37.6933 28.7478 37.9867C28.7924 38.3167 28.9337 38.6155 29.1518 38.8758L29.1444 38.8667H28.3513ZM33.3078 36.2267H32.1183V38.8667H31.127V36.2267H29.7391V35.64H33.1096V36.2267H33.3078Z" fill="#01455E"/>
<path d="M9.71478 25.96C9.34167 24.7889 9.0808 23.5998 8.93413 22.4015L8.92174 22.2933H5.5513C5.8137 24.0584 6.71243 25.7389 8.15348 27.159L8.1287 27.1333C8.55991 26.6695 9.08778 26.279 9.69496 25.9692L9.71478 25.96ZM16.4557 22.44H11.1026C11.1051 23.4868 11.3232 24.497 11.7247 25.4448L11.6974 25.3733C13.212 24.9902 14.7841 24.7452 16.3788 24.6437L16.4557 24.64V22.44ZM16.4557 12.76C14.2748 13.0533 12.887 14.8133 12.2922 16.1333C13.509 16.4927 14.9191 16.7512 16.3887 16.863L16.4557 16.8667V12.76ZM16.4557 20.8267V18.48C14.7909 18.4489 13.1479 18.1923 11.6082 17.7228L11.6974 17.7467C11.3013 18.7464 11.101 19.783 11.1026 20.8248L16.4557 20.8267Z" fill="#01455E"/>
</g>
<defs>
<clipPath id="clip0_11_45">
<rect width="57" height="44" fill="white"/>
</clipPath>
</defs>
</svg>
