<svg width="58" height="42" viewBox="0 0 58 42" fill="none" xmlns="http://www.w3.org/2000/svg">
<path d="M6.36551 31.3565C6.5333 31.8843 6.88978 32.3708 7.3992 32.7674C7.90862 33.1639 8.55308 33.4565 9.26792 33.6157L9.70292 35H9.66667V38.5H48.3333V35H16.1506C16.1823 34.8383 16.1766 34.6739 16.1337 34.5135L15.66 33.0032L40.6894 28.8803L41.1631 30.3905C41.2893 30.7912 41.63 31.1392 42.1103 31.358C42.5906 31.5769 43.1713 31.6487 43.7248 31.5578L45.8103 31.213C46.0845 31.168 46.3437 31.0842 46.5731 30.9666C46.8025 30.849 46.9976 30.6998 47.1473 30.5275C47.297 30.3552 47.3984 30.1632 47.4455 29.9626C47.4927 29.7619 47.4848 29.5564 47.4223 29.358L46.8157 27.4277C47.8935 26.6998 48.4348 25.5972 48.0844 24.4825L46.6586 19.95C46.4856 19.4039 46.1102 18.9024 45.5728 18.4994C45.0353 18.0963 44.3563 17.8071 43.6088 17.6628L38.657 11.7513C37.9268 10.8827 36.8384 10.2021 35.5454 9.80557C34.2524 9.409 32.82 9.31646 31.4505 9.541L12.4362 12.6735C11.0652 12.8984 9.82676 13.4302 8.89672 14.1936C7.96667 14.9569 7.39221 15.9129 7.25484 16.926L6.31959 23.807C5.73299 24.1717 5.29478 24.6453 5.05207 25.1769C4.80936 25.7085 4.77134 26.2779 4.94209 26.824L6.36551 31.3565ZM13.6638 30.1525C13.253 30.2203 12.8278 30.2288 12.4124 30.1776C11.997 30.1264 11.5996 30.0165 11.2429 29.854C10.8862 29.6916 10.5772 29.4799 10.3335 29.231C10.0898 28.9821 9.91617 28.7009 9.82255 28.4034C9.72893 28.1059 9.71714 27.7979 9.78786 27.4972C9.85858 27.1964 10.0104 26.9086 10.2347 26.6503C10.459 26.392 10.7514 26.1682 11.0951 25.9918C11.4388 25.8153 11.8272 25.6895 12.238 25.6217C13.0677 25.4848 13.9385 25.5922 14.6589 25.9202C15.3793 26.2482 15.8902 26.7701 16.0793 27.3709C16.2684 27.9717 16.1201 28.6023 15.6671 29.1239C15.2141 29.6456 14.4935 30.0156 13.6638 30.1525ZM40.7837 25.6865C40.3658 25.7697 39.929 25.7907 39.4997 25.7483C39.0703 25.706 38.6572 25.6011 38.2853 25.4399C37.9134 25.2788 37.5905 25.0649 37.3359 24.8109C37.0813 24.557 36.9004 24.2683 36.804 23.9624C36.7077 23.6564 36.6979 23.3395 36.7752 23.0307C36.8526 22.722 37.0155 22.4278 37.2542 22.1658C37.4928 21.9039 37.8022 21.6797 38.1638 21.5067C38.5253 21.3337 38.9315 21.2155 39.3578 21.1592C40.1712 21.052 41.0103 21.1761 41.7004 21.5057C42.3904 21.8354 42.8782 22.3452 43.062 22.9289C43.2458 23.5125 43.1115 24.1251 42.6871 24.6388C42.2627 25.1525 41.5808 25.5278 40.7837 25.6865ZM13.5068 16.086L32.5235 12.9517C32.9046 12.8894 33.303 12.9151 33.6628 13.0253C34.0226 13.1355 34.3257 13.3246 34.5293 13.566L38.3598 18.1388L36.9919 18.3645L12.7141 22.3668L11.3414 22.5925L12.064 17.269C12.1029 16.9872 12.2631 16.7214 12.522 16.5091C12.7809 16.2968 13.1254 16.1488 13.5068 16.086ZM44.4788 7L41.0833 3.5L39.875 8.75L45.9167 15.75L53.1667 17.5L48.3333 13.0568L53.1667 11.424L48.3333 9.79125L53.1667 3.5L44.4788 7Z" fill="#01455E"/>
</svg>
