<svg width="35" height="26" viewBox="0 0 35 26" fill="none" xmlns="http://www.w3.org/2000/svg">
<g clip-path="url(#clip0_5_4)">
<path d="M7.99275 2.15817C7.86362 2.03477 7.70061 1.9332 7.51457 1.86019C7.32853 1.78718 7.1237 1.74442 6.9137 1.73474C6.7037 1.72505 6.49332 1.74867 6.29656 1.80403C6.09979 1.85938 5.92113 1.94521 5.77244 2.0558L3.51056 3.73767C2.454 4.52417 2.06463 5.6373 2.52619 6.61392C4.44187 10.6563 7.55808 14.3263 11.6437 17.3519C15.7167 20.3869 20.6571 22.7018 26.0987 24.1249C27.4134 24.4678 28.9118 24.1785 29.9706 23.3937L32.2324 21.7134C32.3813 21.603 32.4968 21.4703 32.5714 21.3241C32.6459 21.1779 32.6777 21.0216 32.6646 20.8656C32.6516 20.7096 32.594 20.5575 32.4958 20.4193C32.3975 20.2811 32.2607 20.16 32.0946 20.064L27.0481 17.1488C26.8706 17.0465 26.6642 16.9756 26.4444 16.9412C26.2246 16.9069 25.9972 16.9101 25.7793 16.9505L20.9887 17.8394C20.3492 17.9581 19.6793 17.9518 19.0441 17.8211C18.4089 17.6904 17.8301 17.4398 17.364 17.0935L11.9915 13.1009C11.5251 12.7549 11.1872 12.325 11.0109 11.8531C10.8345 11.3812 10.8257 10.8835 10.9853 10.4083L12.184 6.84955C12.2385 6.68769 12.2428 6.51876 12.1965 6.35549C12.1503 6.19222 12.0548 6.03888 11.9171 5.90705L7.99275 2.15817ZM4.12088 0.830549C4.50368 0.546092 4.96356 0.325386 5.46999 0.183086C5.97642 0.0407863 6.51781 -0.0198511 7.05821 0.00520038C7.59861 0.0302518 8.12565 0.140419 8.60434 0.328386C9.08302 0.516354 9.5024 0.77782 9.83463 1.09542L13.759 4.84267C14.4787 5.53005 14.7324 6.42542 14.4481 7.27042L13.2515 10.8292C13.1896 11.0135 13.193 11.2066 13.2612 11.3897C13.3294 11.5727 13.4602 11.7396 13.6409 11.8741L19.0156 15.8667C19.1968 16.0011 19.4218 16.0985 19.6686 16.1492C19.9155 16.1998 20.1759 16.2022 20.4243 16.1559L25.2128 15.267C25.7741 15.1628 26.36 15.1547 26.9262 15.2434C27.4924 15.332 28.024 15.5152 28.4809 15.7789L33.5253 18.6942C35.3387 19.7423 35.5049 21.7329 33.8818 22.937L31.6199 24.6173C30.0012 25.8198 27.5818 26.3479 25.3265 25.758C19.5541 24.2493 14.313 21.7944 9.99213 18.5755C5.65932 15.3662 2.35471 11.4734 0.323376 7.18592C-0.468499 5.51217 0.242439 3.7133 1.86119 2.5108L4.12306 0.830549H4.12088Z" fill="white"/>
</g>
<defs>
<clipPath id="clip0_5_4">
<rect width="35" height="26" fill="white"/>
</clipPath>
</defs>
</svg>
