<svg width="265" height="81" viewBox="0 0 265 81" fill="none" xmlns="http://www.w3.org/2000/svg">
<g clip-path="url(#clip0_1_4)">
<path d="M31.4887 44.0826C30.077 42.4751 28.5232 41.4349 26.8191 40.9109C25.995 40.6568 25.1587 40.4066 24.3059 40.4027C21.7327 40.3968 19.1594 40.4125 16.5861 40.3889C16.1666 40.3849 16.0081 40.4913 16.0095 41.1729C16.0258 52.1379 16.0245 63.1009 16.0122 74.0658C16.0122 74.6805 16.0942 74.8991 16.5615 74.8932C19.1567 74.8578 21.7573 74.9917 24.3483 74.84C26.6182 74.708 28.8525 74.1623 30.7043 71.9697C31.0022 71.6171 31.363 71.5541 31.7552 71.5009C33.2256 71.3019 34.696 71.3334 36.1665 71.3354C36.463 71.3354 36.7117 71.0754 37.022 71.1167C37.3581 71.1601 37.4429 71.361 37.2652 71.7156C35.9437 74.3377 34.4446 76.6898 32.4166 78.2284C30.9216 79.3631 29.3596 80.1373 27.7005 80.6673C26.9817 80.8977 26.2943 80.9647 25.5933 80.9687C20.9701 80.9943 16.3484 80.9687 11.7252 81.0002C11.221 81.0041 11.0898 80.8406 11.0898 80.0959C11.1062 59.545 11.1062 38.9961 11.087 18.4471C11.087 17.7379 11.2565 17.3991 11.676 17.3735C12.9333 17.2947 14.1687 16.879 15.4382 16.9342C15.9138 16.9539 16.0381 17.1076 16.0354 17.801C16.0135 22.921 16.0368 28.043 16.0095 33.163C16.0054 33.951 16.1598 34.1243 16.6832 34.1145C18.8916 34.0731 21.1027 34.1874 23.3097 34.0711C25.3965 33.9608 27.4914 33.622 29.3473 32.0716C31.1593 30.5606 32.187 28.1572 32.6106 25.2535C33.2721 20.7146 33.2953 16.2309 31.7333 11.9935C30.6209 8.97347 28.8567 7.2123 26.5458 6.50902C24.0982 5.76633 21.6247 6.26868 19.1649 6.13078C18.278 6.08153 17.3883 6.15245 16.5014 6.10911C16.1051 6.09138 16.004 6.28247 16.0163 6.82816C16.0354 7.67328 16.198 8.71737 15.922 9.31231C15.6637 9.86982 14.8684 9.54083 14.3258 9.59993C13.3856 9.70434 12.4413 9.88558 11.4915 9.87573C11.2046 9.87179 11.0966 9.77329 11.098 9.32807C11.1103 6.40658 11.1171 3.48509 11.0952 0.563594C11.0898 -0.094382 11.3549 0.0159373 11.6214 0.0159373H19.6828C21.6644 0.0159373 23.6459 0.0612471 25.6261 0.0041174C28.3401 -0.0727121 30.7685 1.12701 32.9865 3.29203C35.1566 5.40779 36.4494 8.39627 37.231 11.9757C37.831 14.7239 38.0811 17.5075 38.0155 20.3482C37.9239 24.3 37.3677 28.1198 35.7948 31.4294C34.6687 33.7993 33.1737 35.655 31.1238 36.7345C32.9618 37.5462 34.42 38.9606 35.6827 40.712C37.037 42.5913 38.0141 44.8903 38.7165 47.4217C39.3998 49.8862 39.6622 52.4452 39.8467 55.0791C40.0189 57.5396 39.7551 59.9193 39.6581 62.3345C39.6376 62.829 39.5173 63.2072 39.0513 63.3235C38.1726 63.5402 37.2939 63.7214 36.4084 63.8357C36.0462 63.883 35.6786 63.8081 35.3165 63.8514C34.3161 63.9696 34.2519 63.9578 34.4938 62.5946C34.7862 60.9477 34.8464 59.2476 34.845 57.6085C34.8395 53.2371 34.3421 48.9879 32.3879 45.4005C32.1364 44.9395 31.8167 44.5554 31.4955 44.0826H31.4887Z" fill="#01455E"/>
<path d="M24.6301 9.66871C26.2699 9.66871 27.8429 9.73766 29.4117 9.63916C30.1415 9.59188 30.5432 10.0824 30.9122 10.8172C31.739 12.4661 32.2433 14.312 32.5507 16.3667H31.7827C26.5446 16.3667 21.3052 16.282 16.0671 16.408C13.9844 16.4593 11.8812 16.7252 9.86281 17.6511C8.04116 18.4883 6.84814 20.2042 6.24958 22.84C5.77401 24.9341 5.59225 27.0814 5.49386 29.2642C5.21508 35.4499 5.35583 41.6456 5.39 47.8353C5.40776 51.1389 5.53896 54.48 6.19355 57.6891C6.77981 60.5614 8.15322 62.4033 10.1348 63.215C10.6964 63.4435 10.8659 63.735 10.8413 64.5545C10.7921 66.2251 10.8126 67.9035 10.8344 69.576C10.8426 70.1375 10.7853 70.4507 10.3274 70.3483C7.93593 69.8124 5.66605 68.9082 3.81297 66.4576C1.92299 63.9576 0.969119 60.8529 0.546846 57.2419C0.180603 54.1136 0.00568116 50.9951 0.0207135 47.8293C0.0507782 41.6239 -0.0681141 35.4145 0.0658106 29.2149C0.147805 25.4207 0.48125 21.5812 1.69477 18.1278C2.90556 14.6804 4.96499 12.5823 7.5041 11.4378C9.60726 10.4882 11.7747 10.242 13.9612 10.0154C15.3674 9.87162 16.775 10.0529 18.1675 9.84207C20.2994 9.51899 22.4312 9.76721 24.6301 9.66871Z" fill="#01455E"/>
<path d="M42.2054 62.2221C43.6676 60.8628 44.0106 58.7884 44.1787 56.5643C44.3291 54.5785 44.3113 52.5908 44.3031 50.6011C44.3017 50.1736 44.3892 50.0397 44.6885 50.0456C46.1234 50.0653 47.5569 50.0574 48.9918 50.0515C49.272 50.0515 49.5111 50.1145 49.4988 50.6129C49.3991 54.5155 49.6081 58.485 48.7349 62.2536C47.8767 65.9532 46.0591 68.3684 43.4681 69.5544C41.7558 70.3364 39.9997 70.6753 38.2095 70.7442C36.284 70.8171 34.3558 70.8447 32.4357 70.9708C27.2304 71.3155 22.0265 70.9984 16.8226 71.1481C16.332 71.1638 16.2787 70.89 16.2869 70.3049C16.3087 68.6304 16.3197 66.9559 16.2828 65.2834C16.2677 64.5979 16.388 64.3812 16.8759 64.4225C21.1888 64.7752 25.5072 64.6708 29.8228 64.592C31.5871 64.5585 33.3595 64.5782 35.1183 64.3989C37.0616 64.2039 39.0295 64.1014 40.8962 63.081C41.3335 62.8426 41.7175 62.4624 42.2054 62.2221Z" fill="#01455E"/>
<path d="M236.449 31.5375C236.449 36.232 236.469 40.828 236.433 45.424C236.426 46.3381 236.682 46.8404 237.219 47.0512C237.452 47.1438 237.599 47.3841 237.804 47.4807C238.129 47.6363 238.095 48.0007 238.088 48.3573C238.08 48.7257 237.927 48.8715 237.688 48.8793C237.666 48.8793 237.642 48.8833 237.621 48.8892C236.279 49.1847 234.939 49.1808 233.596 48.8892C233.284 48.8222 233.164 48.639 233.164 48.1938C233.164 47.8215 233.161 47.4669 233.47 47.3644C234.606 46.9901 234.711 45.8771 234.697 44.3976C234.64 38.2591 234.666 32.1207 234.682 25.9802C234.684 25.2809 234.598 24.7943 234.077 24.613C233.91 24.5539 233.771 24.351 233.607 24.2545C233.264 24.0555 233.146 23.7088 233.163 23.1828C233.182 22.5997 233.547 22.5879 233.745 22.5603C234.775 22.4185 235.818 22.32 236.833 22.7376C237.346 22.9484 237.455 23.7127 237.667 24.2703C239.068 27.9581 240.422 31.6853 241.808 35.3849C242.718 37.8159 243.654 40.2232 244.649 42.8295V41.7362C244.649 36.4507 244.638 31.1652 244.66 25.8797C244.664 25.0425 244.56 24.4968 243.911 24.4082C243.741 24.3845 243.568 24.2663 243.42 24.1343C243.188 23.9294 243.117 23.6024 243.142 23.2065C243.169 22.777 243.344 22.714 243.599 22.6568C244.943 22.3594 246.282 22.3653 247.627 22.6568C247.888 22.714 248.061 22.8006 248.065 23.2262C248.069 23.5945 248.087 23.9629 247.747 24.0575C246.524 24.4003 246.533 25.6473 246.543 27.0972C246.587 33.6947 246.562 40.2941 246.562 46.8936C246.562 48.771 245.819 49.5334 244.53 48.9995C244.039 48.7946 243.728 48.4046 243.479 47.7111C241.752 42.8985 239.986 38.1134 238.226 33.3263C237.678 31.8389 237.107 30.3693 236.449 28.6338V31.5356V31.5375Z" fill="#01455E"/>
<path d="M89.4863 46.7163C89.8785 46.9606 90.2379 47.1142 90.5713 47.3447C90.8337 47.5279 90.9417 47.8727 90.9143 48.3218C90.8843 48.8261 90.6629 48.8301 90.3964 48.8852C88.915 49.1985 87.4364 49.1473 85.955 48.9207C85.6448 48.8734 85.3565 48.708 85.3196 48.2174C85.2854 47.7663 85.586 47.4038 85.7938 47.3585C87.1275 47.0591 86.9677 45.6722 86.9526 44.3228C86.9294 42.0908 86.9308 39.8568 86.9554 37.6248C86.9636 36.9215 86.8392 36.6339 86.309 36.6418C83.9858 36.6772 81.6626 36.6694 79.3394 36.6477C78.9007 36.6437 78.734 36.8388 78.7381 37.4928C78.7559 40.2823 78.7504 43.0738 78.7422 45.8633C78.7409 46.4247 78.8502 46.7931 79.2684 46.9172C79.4583 46.9744 79.6196 47.2127 79.8082 47.2797C80.2345 47.4275 80.3015 47.8412 80.2455 48.3632C80.1826 48.9384 79.8451 49.0468 79.5417 49.0547C78.2899 49.0862 77.0367 49.0783 75.7836 49.0586C75.569 49.0547 75.3408 48.9621 75.1468 48.8301C74.9459 48.6942 74.7737 48.4775 74.7791 48.0815C74.7846 47.7289 74.8939 47.5397 75.1222 47.4629C76.3657 47.0433 76.4641 45.7963 76.4477 44.1927C76.3849 38.1528 76.4122 32.1108 76.4341 26.0708C76.4368 25.1646 76.2797 24.5598 75.6264 24.3668C75.5868 24.355 75.5554 24.284 75.5157 24.2565C75.1796 24.026 74.704 23.894 74.801 23.1808C74.8898 22.5327 75.3982 22.5248 75.718 22.5051C76.9684 22.4303 78.2229 22.4342 79.4747 22.5091C79.7344 22.5248 80.1812 22.4835 80.2523 23.1828C80.3234 23.8743 80.0309 24.1107 79.6578 24.2506C78.9212 24.5303 78.6876 25.1567 78.7231 26.2796C78.7969 28.6397 78.7778 31.0076 78.7286 33.3696C78.7108 34.2029 78.9568 34.4787 79.4364 34.4827C81.7596 34.4984 84.0828 34.4965 86.406 34.4827C86.7558 34.4827 86.9595 34.264 86.9554 33.6474C86.9321 30.9229 86.9308 28.1984 86.9581 25.4739C86.9636 24.8888 86.775 24.5953 86.462 24.4909C86.1491 24.3884 85.884 24.1658 85.6134 23.9649C85.4467 23.8408 85.2471 23.6202 85.3168 23.2636C85.3729 22.972 85.5232 22.7159 85.7323 22.6883C86.0876 22.643 86.4142 22.4224 86.7873 22.4618C88.0254 22.5899 89.2744 22.2727 90.5098 22.6588C90.7408 22.7317 90.902 22.8184 90.9075 23.1848C90.913 23.496 90.9731 23.8566 90.6451 23.9472C90.5891 23.9629 90.5522 24.1304 90.4975 24.1422C89.3906 24.3806 89.3851 25.4877 89.392 26.7682C89.4234 33.0387 89.4056 39.3091 89.4084 45.5816C89.4084 45.9401 89.4316 46.2987 89.4876 46.7163H89.4863Z" fill="#01455E"/>
<path d="M92.1866 56.9149C89.3592 56.8598 86.5905 56.8283 83.8218 56.779C81.6886 56.7416 79.554 56.8598 77.3688 56.6293C77.3155 56.5387 77.3142 56.4953 77.3169 56.387C83.2643 56.2707 89.2075 56.2116 95.1494 56.1742C101.344 56.1368 107.539 56.1407 113.732 56.0934C146.251 55.8433 178.772 55.9674 211.292 56.0265C220.72 56.0442 230.147 56.1407 239.575 56.2136C242.33 56.2333 245.085 56.2944 247.839 56.3436C248.056 56.3476 248.289 56.255 248.486 56.7317C243.744 56.7731 239.001 56.8145 234.199 56.8775C233.581 56.9937 233.023 56.9327 232.406 56.9366C219.865 56.9721 207.384 57.0115 194.841 57.0745C192.724 57.2006 190.668 57.1218 188.545 57.1356C180.678 57.1356 172.876 57.1435 165.073 57.1415C156.066 57.1375 147.057 57.1238 137.986 57.1198C135.912 57.1572 133.9 57.1572 131.823 57.1119C129.732 57.0706 127.707 57.0292 125.681 57.0213C115.182 56.9819 104.683 56.9504 94.119 56.9228C93.4521 56.9583 92.8494 56.9602 92.1866 56.9149Z" fill="#8A8A8A"/>
<path d="M226.196 33.0997C226.353 32.4772 226.583 31.9887 227.035 32.1581C227.475 32.3235 227.437 32.9224 227.433 33.4563C227.423 34.9003 227.42 36.3463 227.435 37.7903C227.441 38.3655 227.322 38.856 226.933 38.988C226.528 39.1259 226.355 38.6058 226.197 38.1724C226.106 37.9223 226.037 37.6524 225.968 37.3884C225.832 36.8782 225.611 36.628 225.204 36.6457C224.362 36.6851 223.519 36.6752 222.676 36.6496C222.286 36.6378 222.091 36.7856 222.094 37.4179C222.109 40.2409 222.111 43.0639 222.091 45.8869C222.087 46.4425 222.234 46.5193 222.566 46.5173C224.82 46.4996 227.075 46.4858 229.328 46.5252C229.824 46.5331 229.875 46.0504 230.063 45.6229C230.282 45.1304 230.303 44.1533 230.916 44.4075C231.442 44.6261 231.386 45.4673 231.382 46.1115C231.378 46.7202 231.397 47.325 231.321 47.9495C231.213 48.834 230.799 49.0448 230.354 49.0487C226.575 49.0822 222.795 49.0803 219.015 49.0487C218.688 49.0448 218.211 49.0862 218.139 48.312C218.066 47.5437 218.453 47.2639 218.845 47.1221C219.456 46.8995 219.665 46.4779 219.66 45.5166C219.623 38.9526 219.632 32.3866 219.651 25.8226C219.654 25.0188 219.549 24.5007 218.926 24.4259C218.756 24.4062 218.583 24.2899 218.432 24.1619C218.169 23.9393 218.096 23.5768 218.137 23.1493C218.173 22.7809 218.35 22.7494 218.56 22.6529C218.935 22.4775 219.308 22.4756 219.688 22.4756C223.036 22.4756 226.383 22.4657 229.73 22.4795C231.318 22.4874 231.419 22.7849 231.392 24.9046C231.385 25.4148 231.418 25.9191 231.278 26.4333C231.184 26.7879 231.116 27.0105 230.834 27.0105C230.598 27.0105 230.368 27.0144 230.3 26.5948C230.02 24.8888 229.179 24.7549 228.143 24.812C226.303 24.9125 224.456 24.8612 222.611 24.8238C222.178 24.814 222.085 24.9991 222.091 25.5921C222.113 28.2181 222.128 30.8441 222.084 33.4701C222.07 34.2325 222.335 34.4511 222.722 34.4728C223.587 34.524 224.454 34.5201 225.317 34.4787C225.864 34.4531 225.966 33.7045 226.196 33.1017V33.0997Z" fill="#01455E"/>
<path d="M124.257 23.4409C124.409 22.5662 124.896 22.4933 125.322 22.4894C129.034 22.4618 132.747 22.4598 136.458 22.4835C137.318 22.4894 137.509 22.842 137.509 24.0989V26.1673C137.509 26.5279 137.547 26.9337 137.194 26.9928C136.885 27.046 136.532 27.1129 136.431 26.516C136.167 24.944 135.429 24.745 134.434 24.8061C132.594 24.9184 130.746 24.8652 128.901 24.8199C128.352 24.8081 128.196 25.0622 128.206 25.8364C128.236 28.3304 128.238 30.8264 128.206 33.3223C128.193 34.2069 128.495 34.4748 129.012 34.4866C129.763 34.5024 130.515 34.4649 131.267 34.5004C131.756 34.5221 132.061 34.2738 132.219 33.5863C132.315 33.1707 132.454 32.7609 132.626 32.4024C132.851 31.9355 133.465 32.0596 133.535 32.5994C133.772 34.4255 133.765 36.2655 133.575 38.1055C133.527 38.5665 133.419 38.9565 133.076 39.0038C132.745 39.0511 132.498 38.6531 132.449 38.2926C132.203 36.4921 131.312 36.5452 130.361 36.6477C129.862 36.7009 129.358 36.6969 128.859 36.6477C128.374 36.5984 128.219 36.9373 128.219 37.5539C128.219 40.3434 128.227 43.1349 128.212 45.9244C128.21 46.4169 128.329 46.5213 128.643 46.5173C130.92 46.5016 133.198 46.4917 135.476 46.5232C135.984 46.5291 136.08 46.0012 136.286 45.554C136.499 45.093 136.461 44.177 137.072 44.37C137.698 44.567 137.487 45.3865 137.511 45.9992C137.527 46.4563 137.513 46.9172 137.513 47.3762C137.513 48.7316 137.289 49.0645 136.319 49.0665C133.746 49.0763 131.171 49.0704 128.598 49.0704H125.591C125.455 49.0704 125.308 49.1138 125.183 49.0606C124.833 48.9109 124.346 48.9128 124.282 48.2667C124.223 47.6757 124.624 47.3624 124.953 47.2029C125.728 46.8286 125.932 46.1509 125.922 44.965C125.87 38.6295 125.886 32.292 125.91 25.9566C125.914 25.0779 125.684 24.6524 125.129 24.4338C124.773 24.2939 124.412 24.0989 124.262 23.4429H124.257V23.4409Z" fill="#01455E"/>
<path d="M96.6485 31.1416C96.6485 31.9611 96.7032 32.6939 96.6335 33.4031C96.5528 34.2207 96.8753 34.4511 97.2962 34.4748C98.1832 34.5221 99.0728 34.5122 99.9597 34.4748C100.308 34.461 100.476 34.0512 100.614 33.6218C100.818 32.9874 100.87 31.967 101.552 32.1719C102.232 32.3748 101.952 33.344 101.969 34.004C102.001 35.249 101.977 36.498 101.978 37.745C101.978 38.2788 101.955 38.858 101.527 38.9959C101.027 39.1574 100.856 38.5231 100.763 38.0129C100.579 36.9924 100.236 36.5058 99.4459 36.6299C98.7038 36.7481 97.944 36.6792 97.1938 36.6457C96.7728 36.628 96.6376 36.8683 96.6403 37.4573C96.654 40.2488 96.6526 43.0383 96.6403 45.8278C96.6376 46.3006 96.684 46.5232 97.0735 46.5193C99.3502 46.4917 101.628 46.4996 103.905 46.5114C104.185 46.5114 104.37 46.4228 104.474 46.0051C104.562 45.6466 104.732 45.3334 104.837 44.9827C104.968 44.5513 105.158 44.238 105.501 44.3562C105.836 44.4685 105.918 44.9137 105.932 45.3353C105.955 46.0563 105.928 46.7793 105.94 47.5003C105.96 48.6764 105.672 49.031 104.911 49.0428C101.176 49.096 97.4411 49.0685 93.7076 49.0586C93.5149 49.0586 93.3222 48.9404 93.1323 48.8655C92.8986 48.773 92.7059 48.5622 92.6977 48.2115C92.6895 47.9042 92.7715 47.5969 93.0175 47.459C93.0968 47.4156 93.1487 47.2305 93.2238 47.2147C94.3813 46.9665 94.3431 45.7924 94.3376 44.4941C94.3075 38.3557 94.3116 32.2172 94.3376 26.0787C94.3417 25.1449 94.1627 24.6012 93.5081 24.4239C93.3195 24.3727 93.146 24.1875 92.9724 24.0457C92.7619 23.8723 92.6526 23.563 92.7045 23.2537C92.7496 22.9819 92.8125 22.6883 93.1255 22.6391C93.4534 22.5898 93.7759 22.4657 94.1149 22.4657C97.5532 22.4756 100.991 22.4716 104.43 22.4716C104.59 22.4716 104.751 22.448 104.908 22.4795C105.796 22.6568 105.943 22.905 105.94 24.2289C105.94 24.9164 105.967 25.6138 105.893 26.2855C105.869 26.5081 105.925 27.0657 105.509 27.0125C105.216 26.975 104.916 27.0597 104.814 26.4904C104.55 25.0188 103.874 24.7253 102.873 24.7962C101.011 24.9322 99.1398 24.8534 97.273 24.8238C96.8002 24.8159 96.6294 25.0248 96.6389 25.7221C96.6663 27.4951 96.6485 29.2681 96.6485 31.1396V31.1416Z" fill="#01455E"/>
<path d="M43.8986 28.3658C43.8918 26.4234 43.889 24.5933 43.6471 22.7553C43.2563 19.7787 41.8979 18.315 40.0353 17.5762C39.531 17.3753 39.0226 17.0522 38.4719 17.1566C38.0264 17.2394 38.0592 16.5932 38.0524 16.3745C37.9909 14.3021 37.5987 12.3479 37.1149 10.4212C37.0001 9.96616 37.0944 9.81841 37.4155 9.88933C38.599 10.1494 39.792 10.3326 40.9646 10.6675C43.6157 11.4279 45.9211 13.0531 47.4353 16.4573C48.2019 18.179 48.4329 20.1628 48.6885 22.1367C48.9604 24.2407 48.8524 26.388 49.0861 28.4939C49.1599 29.1617 49.134 29.6404 48.463 29.5912C47.192 29.5006 45.9143 29.5065 44.6434 29.5912C43.9956 29.6325 43.7975 29.3193 43.8986 28.3658Z" fill="#01455E"/>
<path d="M111.958 26.9869C112.915 30.9919 113.866 34.9161 114.821 38.8383C115.104 39.9986 115.392 41.155 115.678 42.3134C116.196 40.0735 116.699 37.8809 117.209 35.6903C118.008 32.2605 118.791 28.8229 119.632 25.4148C119.783 24.8002 119.679 24.6229 119.336 24.4397C119.129 24.3274 118.931 24.1816 118.734 24.0358C118.482 23.8526 118.506 23.5098 118.516 23.1828C118.526 22.8735 118.639 22.7258 118.85 22.6706C120.147 22.3239 121.445 22.3929 122.738 22.6884C123.089 22.7691 123.198 23.7994 122.865 23.9275C120.971 24.6643 121.039 27.1701 120.577 29.1322C119.119 35.3239 117.722 41.5471 116.322 47.7663C116.167 48.4499 115.917 49.0192 115.444 48.9995C114.967 48.9798 114.604 48.4499 114.433 47.7643C113.966 45.883 113.515 43.9938 113.047 42.1124C111.675 36.5866 110.294 31.0667 108.931 25.535C108.715 24.6564 108.133 24.615 107.693 24.2348C107.51 24.0772 107.215 24.0555 107.186 23.6753C107.153 23.2439 107.066 22.7514 107.572 22.6608C109.211 22.3653 110.846 22.3554 112.484 22.6628C112.714 22.7061 112.89 22.779 112.905 23.1493C112.919 23.502 112.924 23.7994 112.657 24.0693C112.281 24.4476 111.569 24.2407 111.518 25.0366C111.48 25.6355 111.796 26.2816 111.957 26.9869H111.958Z" fill="#01455E"/>
<path d="M140.893 33.9508C139.483 31.9532 139.247 29.5242 139.731 27.0341C140.188 24.6761 141.431 23.2222 143.086 22.6883C145.073 22.0481 146.975 22.5701 148.792 23.8487C149.185 24.1264 149.032 24.7135 149.084 25.0957C149.199 25.9388 149.132 26.8312 149.252 27.7C149.311 28.1314 149.282 28.6495 148.89 28.7638C148.442 28.8938 147.983 28.813 147.91 28.0014C147.769 26.4274 147.012 25.73 146.125 25.1252C144.901 24.2899 143.07 24.8652 142.389 26.3604C141.526 28.2614 141.793 30.3142 142.993 31.8882C144.158 33.413 145.639 34.0434 146.966 35.1071C148.261 36.1453 149.498 37.3963 149.877 39.6322C150.585 43.8086 149.315 48.3317 145.668 49.1039C143.562 49.5511 141.683 48.6567 139.772 47.7013C139.375 47.5023 139.474 46.9192 139.466 46.6769C139.431 45.6387 139.338 44.6104 139.29 43.5761C139.271 43.1624 139.275 42.6817 139.64 42.5832C139.985 42.4907 140.307 42.6601 140.509 43.1211C140.602 43.3338 140.708 43.5623 140.74 43.8027C141.016 45.9559 142.283 46.3105 143.418 46.6454C144.158 46.864 144.984 46.8778 145.762 46.5153C146.829 46.0189 147.353 44.896 147.625 43.4106C148.111 40.7709 146.986 39.2875 145.657 38.0089C144.473 36.8723 143.033 36.4467 141.936 35.0973C141.616 34.7053 141.265 34.3645 140.893 33.9508Z" fill="#01455E"/>
<path d="M216.221 43.0403C216.492 44.502 216.309 45.9106 216.359 47.3033C216.368 47.5102 216.318 47.6028 216.157 47.7032C213.375 49.4585 210.569 49.8013 207.769 47.8746C205.778 46.5055 204.824 43.9819 204.329 40.9994C203.955 38.7418 203.831 36.4487 203.943 34.1537C204.06 31.7345 204.303 29.3233 205.159 27.1523C206.094 24.7765 207.522 23.3936 209.347 22.8125C211.591 22.1013 213.781 22.2904 215.893 23.6852C216.239 23.9137 216.414 24.2151 216.368 24.8021C216.279 25.927 216.491 27.0735 216.239 28.1984C216.169 28.5077 216.128 28.7598 215.872 28.7756C215.615 28.7914 215.388 28.685 215.268 28.3383C215.139 27.9679 215.011 27.5916 214.931 27.1976C214.562 25.3656 213.476 24.7096 212.462 24.6485C209.654 24.4791 207.777 26.6756 206.942 30.2984C206.057 34.1438 206.027 38.0917 207.116 41.8169C208.298 45.8613 210.464 47.3802 213.383 46.5114C214.536 46.1667 214.825 44.8133 215.138 43.4579C215.324 42.6463 215.727 42.4867 216.221 43.0403Z" fill="#01455E"/>
<path d="M62.1055 26.6638C63.0867 24.349 64.5626 23.1769 66.2859 22.6942C68.4601 22.0855 70.6029 22.3771 72.6528 23.6714C72.8851 23.8191 73.0354 24.0023 73.019 24.4633C72.9821 25.5763 73.0053 26.6933 73.0081 27.8103C73.0081 28.2043 72.9917 28.6279 72.6924 28.7579C72.3521 28.9056 72.072 28.6889 71.9189 28.2102C71.8178 27.893 71.703 27.5778 71.6442 27.2429C71.2602 25.1055 70.2093 24.7903 69.1666 24.6642C66.5114 24.3412 64.5613 26.7327 63.7154 30.0738C63.1879 32.1561 62.9446 34.3211 63.0498 36.5137C63.1974 39.6125 63.6156 42.6207 65.2746 44.9059C66.6262 46.7675 69.1024 47.2738 70.5701 46.2021C71.14 45.7845 71.483 45.158 71.6388 44.2912C71.7344 43.7574 71.8492 43.253 72.1649 42.8866C72.3248 42.7014 72.4656 42.4217 72.6856 42.6286C72.8468 42.7822 73.0149 42.9615 73.0122 43.32C73.0026 44.634 72.989 45.948 73.0204 47.258C73.03 47.6895 72.8127 47.7801 72.6651 47.853C71.5171 48.4282 70.3952 49.1394 69.1338 49.0783C67.9053 49.0172 66.6918 49.1078 65.4796 48.5149C63.4202 47.5062 62.0645 45.5303 61.4099 42.6345C60.3713 38.0424 60.3946 33.3992 61.3881 28.7756C61.5466 28.0369 61.8035 27.3749 62.1096 26.6638H62.1055Z" fill="#01455E"/>
<path d="M198.185 31.9296C198.185 29.7645 198.165 27.698 198.198 25.6335C198.207 24.9597 198.045 24.617 197.615 24.4416C197.384 24.3451 197.169 24.1717 196.942 24.0496C196.625 23.8782 196.674 23.496 196.687 23.1454C196.703 22.773 196.883 22.708 197.111 22.6627C198.657 22.3574 200.202 22.3337 201.745 22.6805C202.199 22.7809 202.292 23.2695 201.986 23.7856C201.778 24.1363 201.533 24.4042 201.194 24.4456C200.709 24.5047 200.507 24.9164 200.507 25.596C200.51 32.3846 200.511 39.1732 200.503 45.9637C200.503 46.3814 200.59 46.6257 200.871 46.7655C201.182 46.9192 201.492 47.0925 201.782 47.3152C202.031 47.5043 202.177 47.8057 202.157 48.2706C202.135 48.7552 201.945 48.8202 201.676 48.9168C201.532 48.968 201.391 49.0684 201.231 49.0684C200.026 49.0684 198.819 49.1078 197.615 49.0468C197.19 49.0251 196.629 49.0783 196.67 47.9968C196.694 47.323 196.998 47.195 197.322 47.1063C197.994 46.9251 198.221 46.4641 198.208 45.4082C198.154 40.9501 198.185 36.4881 198.185 31.9296Z" fill="#01455E"/>
<path d="M241.36 62.6456C241.612 64.2472 241.857 65.7621 242.121 67.3854C242.335 65.8409 242.565 64.4048 242.719 62.951C242.77 62.4703 242.901 62.4545 243.148 62.4604C243.579 62.4742 244.011 62.4644 244.494 62.4644C244.005 65.0214 243.515 67.5194 243.057 70.0311C242.975 70.4763 242.841 70.5453 242.557 70.5531C241.275 70.5866 241.31 70.5847 240.914 68.8688C240.728 68.069 240.701 67.1785 240.329 66.4497C240.123 67.6513 239.936 68.8274 239.714 69.9917C239.651 70.3167 239.522 70.5492 239.194 70.563C237.923 70.6083 237.906 70.6477 237.54 68.8964C237.133 66.954 236.769 64.9919 236.366 63.0495C236.276 62.6121 236.317 62.4269 236.645 62.4644C236.668 62.4663 236.69 62.4663 236.713 62.4644C237.534 62.4033 238.037 62.9549 238.225 64.1152C238.387 65.1219 238.558 66.1266 238.83 67.1037C239.039 65.9 239.303 64.7102 239.437 63.4907C239.531 62.6338 239.767 62.3265 240.343 62.4585C240.675 62.5353 241.022 62.36 241.36 62.6456Z" fill="#01455E"/>
<path d="M142.15 70.2931C141.694 70.7029 141.215 70.4842 140.751 70.5354C140.451 70.5689 140.518 70.2242 140.518 69.9838C140.514 67.6553 140.518 65.3248 140.513 62.9963C140.512 62.6535 140.553 62.5077 140.835 62.4467C141.672 62.2615 142.306 62.5846 142.673 63.7311C143.017 64.8047 143.554 65.6972 144.069 66.9126C144.069 65.5396 144.087 64.3871 144.061 63.2366C144.048 62.6772 144.11 62.4309 144.566 62.4447C145.572 62.4743 145.572 62.4309 145.572 63.8789C145.572 65.8804 145.562 67.8819 145.579 69.8834C145.583 70.3739 145.495 70.5039 145.136 70.567C144.302 70.7147 143.806 70.2853 143.443 69.1899C143.127 68.2345 142.653 67.3874 142.154 66.2842C142.154 67.7459 142.154 68.9732 142.15 70.2931Z" fill="#01455E"/>
<path d="M84.7128 69.905C85.2731 67.5844 85.7979 65.3287 86.3213 63.0731C86.4278 62.6161 86.6274 62.4565 86.9772 62.4506C88.3534 62.423 88.3561 62.4013 88.7907 64.2413C89.2293 66.1029 89.6311 67.9843 90.1149 69.8223C90.2775 70.4409 90.2242 70.5788 89.8006 70.5453C89.5505 70.5256 89.299 70.5177 89.0503 70.5472C88.6827 70.5906 88.3875 70.5236 88.3493 69.8735C88.3274 69.5012 88.2235 69.3101 87.927 69.3495C87.5881 69.3928 87.2451 69.3731 86.9048 69.3554C86.6738 69.3436 86.5481 69.3928 86.5126 69.8026C86.4634 70.368 86.2365 70.6773 85.7815 70.5551C85.4958 70.4783 85.1911 70.5334 84.8959 70.5433C84.5625 70.5531 84.5898 70.2892 84.7114 69.905H84.7128Z" fill="#01455E"/>
<path d="M158.816 46.3105C158.816 48.5425 158.816 50.676 158.814 52.8114C158.814 53.237 158.869 53.6763 158.393 53.6723C157.914 53.6684 157.983 53.2153 157.983 52.7996V21.4808C157.983 21.0592 157.922 20.6199 158.4 20.6238C158.878 20.6277 158.816 21.071 158.816 21.4926C158.817 29.7311 158.817 37.9715 158.817 46.3105H158.816Z" fill="#888888"/>
<path d="M173.315 68.6639C173.297 68.2345 173.288 67.9291 173.646 67.9725C173.985 68.0119 174.328 67.9862 174.669 67.9784C174.836 67.9744 175.03 68.0079 175.027 68.2739C175.019 69.0323 175.406 68.6935 175.637 68.7624C175.838 68.8215 175.913 68.6698 175.914 68.3743C175.917 67.939 175.875 67.6533 175.5 67.5588C175.116 67.4622 174.751 67.1963 174.381 66.9973C173.863 66.7215 173.389 66.3393 173.323 65.4627C173.247 64.4619 173.335 63.5991 174.069 62.9982C175.152 62.1117 176.485 62.2437 177.241 63.4947C177.405 63.7646 177.527 64.0601 177.551 64.4284C177.583 64.9347 177.568 65.3425 177.074 65.2322C176.808 65.1731 176.529 65.2145 176.257 65.2243C176.008 65.2322 175.802 65.1692 175.773 64.7338C175.746 64.3024 175.548 64.2117 175.292 64.2393C175.079 64.263 174.971 64.4324 174.953 64.7397C174.932 65.1219 175.056 65.2933 175.295 65.4647C175.753 65.7917 176.254 65.9059 176.725 66.1758C177.857 66.822 178.034 68.8077 176.902 70.0547C175.824 71.2446 173.864 70.8368 173.315 68.6639Z" fill="#01455E"/>
<path d="M155.82 70.1198C155.82 70.6477 155.59 70.5354 155.426 70.5374C154.561 70.5453 153.696 70.5256 152.831 70.5492C152.521 70.5591 152.394 70.4625 152.397 69.9622C152.414 67.6671 152.413 65.3681 152.398 63.0711C152.395 62.6141 152.473 62.4407 152.812 62.4545C153.676 62.486 154.544 62.5057 155.406 62.4506C155.972 62.4132 155.813 62.949 155.816 63.3548C155.819 63.7646 155.961 64.3319 155.402 64.2452C155.086 64.198 154.762 64.2669 154.447 64.2295C154.064 64.1842 153.893 64.2846 153.888 64.9485C153.881 65.6814 154.145 65.64 154.475 65.6183C154.635 65.6065 154.798 65.6479 154.954 65.6104C155.53 65.4745 155.758 65.7365 155.705 66.6427C155.671 67.2298 155.601 67.4819 155.171 67.3972C154.925 67.3499 154.669 67.413 154.421 67.3834C154.078 67.3421 153.894 67.411 153.89 68.0375C153.886 68.6718 154.027 68.855 154.433 68.7742C154.612 68.7388 154.802 68.8077 154.978 68.7605C155.715 68.5654 155.944 69.0461 155.82 70.1198Z" fill="#01455E"/>
<path d="M166.653 64.1074C166.347 64.9998 166.112 65.8685 165.781 66.6526C165.37 67.6277 165.158 68.6344 165.252 69.7671C165.299 70.3168 165.218 70.5748 164.757 70.561C163.747 70.5315 163.727 70.5768 163.756 69.1387C163.771 68.3409 163.661 67.6336 163.385 66.9343C162.94 65.7996 162.615 64.5762 162.119 63.473C161.781 62.7225 161.9 62.4742 162.518 62.4644C163.62 62.4466 163.612 62.4506 164.03 64.0463C164.164 64.5624 164.352 65.049 164.552 65.6597C164.804 64.7693 165.059 63.9675 165.256 63.1361C165.383 62.6003 165.577 62.3541 165.968 62.4624C166.034 62.4801 166.106 62.4506 166.172 62.4664C166.494 62.5392 166.975 62.2063 167.108 62.6299C167.254 63.0987 166.919 63.6208 166.653 64.1074Z" fill="#01455E"/>
<path d="M97.4753 70.2931C97.4698 68.528 97.4438 66.8575 97.4807 65.1909C97.4971 64.4482 97.3796 64.0837 96.8275 64.2374C96.244 64.3989 96.0349 64.0955 96.0827 63.2071C96.1142 62.6161 96.1907 62.4309 96.6171 62.4486C97.7513 62.4939 98.8883 62.5097 100.023 62.4447C100.549 62.4151 100.494 62.8387 100.474 63.2957C100.454 63.7252 100.642 64.3694 100.032 64.2413C99.8982 64.2137 99.7575 64.263 99.6249 64.2334C99.2013 64.133 99.0878 64.3753 99.1001 64.982C99.1316 66.5836 99.0906 68.1912 99.1206 69.7928C99.1316 70.3916 99.0277 70.6477 98.5986 70.5433C98.2296 70.4547 97.836 70.7029 97.4766 70.2931H97.4753Z" fill="#01455E"/>
<path d="M202.968 66.9973C202.968 66.6368 202.971 66.3748 202.968 66.1128C202.959 65.5277 203.084 64.8146 202.897 64.395C202.71 63.9753 202.184 64.2492 201.809 64.2492C201.266 64.2492 201.481 63.6838 201.479 63.3469C201.477 63.0081 201.272 62.4466 201.814 62.4565C203.084 62.4801 204.357 62.4801 205.628 62.4585C206.17 62.4486 205.961 63.012 205.961 63.3509C205.961 63.6897 206.172 64.2511 205.629 64.2492C205.255 64.2492 204.728 63.9734 204.541 64.3969C204.354 64.8185 204.476 65.5297 204.473 66.1167C204.469 67.3598 204.452 68.6048 204.48 69.8459C204.492 70.4014 204.379 70.6181 203.99 70.5472C203.79 70.5118 203.58 70.5137 203.378 70.5472C203.046 70.6004 202.951 70.4074 202.961 69.9424C202.985 68.9929 202.968 68.0434 202.968 66.9973Z" fill="#01455E"/>
<path d="M109.228 64.4876C109.222 66.3157 109.205 68.0513 109.232 69.7868C109.24 70.3719 109.154 70.6497 108.715 70.5472C108.538 70.5078 108.35 70.5157 108.171 70.5472C107.819 70.6103 107.701 70.433 107.711 69.903C107.736 68.463 107.719 67.0229 107.719 65.5829C107.719 64.2472 107.719 64.2058 106.805 64.2551C106.333 64.2787 106.201 64.1054 106.195 63.406C106.19 62.6417 106.328 62.4151 106.866 62.4447C108.001 62.5097 109.138 62.5097 110.272 62.4447C110.799 62.4151 110.742 62.8387 110.723 63.2957C110.705 63.7271 110.89 64.3181 110.28 64.259C109.938 64.2236 109.563 64.062 109.228 64.4876Z" fill="#01455E"/>
<path d="M219.777 65.4194C219.777 65.9119 219.773 66.3039 219.779 66.6959C219.785 67.348 219.643 68.1478 219.854 68.6068C220.063 69.0599 220.653 68.7506 221.074 68.7565C221.618 68.7624 221.401 69.3239 221.403 69.6608C221.406 69.9996 221.608 70.565 221.066 70.5492C220.204 70.5216 219.34 70.5295 218.478 70.5472C218.207 70.5551 218.132 70.4093 218.133 70.037C218.141 67.6789 218.141 65.3228 218.133 62.9648C218.132 62.5865 218.217 62.4841 218.479 62.4526C219.779 62.2969 219.777 62.2812 219.777 64.1428V65.4194Z" fill="#01455E"/>
<path d="M77.9045 56.6549C74.1751 56.7652 70.4853 56.8243 66.7983 56.5859C66.167 56.5446 65.5329 56.5544 64.8017 56.5426C64.6774 56.5111 64.6514 56.4756 64.6815 56.4047C69.045 56.3614 73.3538 56.3515 77.7596 56.3594C77.9264 56.4382 77.9523 56.515 77.9031 56.6549H77.9045Z" fill="#A4A4A4"/>
<path d="M261.594 56.4855C257.148 56.7317 252.74 56.7889 248.231 56.7298C248.063 56.6391 248.037 56.5584 248.091 56.4146C252.53 56.3614 256.924 56.3614 261.42 56.3574C261.559 56.3791 261.597 56.4047 261.594 56.4855Z" fill="#A5A5A5"/>
<path d="M188.519 57.1907C189.102 56.8519 189.738 57.0272 190.368 57.0154C191.798 56.9898 193.229 57.0193 194.72 57.0627C194.71 57.173 194.64 57.3128 194.571 57.3109C192.567 57.3069 190.563 57.435 188.519 57.1907Z" fill="#E8E8E8"/>
<path d="M131.787 57.1553C133.781 56.9129 135.804 57.0134 137.874 57.0843C137.815 57.3463 137.654 57.3365 137.495 57.3365C135.686 57.3365 133.875 57.3365 132.066 57.3286C131.983 57.3286 131.899 57.2538 131.787 57.1553Z" fill="#E8E8E8"/>
<path d="M261.633 56.6076C261.593 56.5485 261.586 56.4638 261.579 56.4224C262.715 56.3811 263.858 56.3811 265 56.3811C263.901 56.8342 262.789 56.8125 261.633 56.6076Z" fill="#E5E5E5"/>
<path d="M64.6282 56.3692C64.6938 56.383 64.6802 56.4638 64.6761 56.5052C63.5814 56.9681 62.4977 56.7494 61.414 56.3574C62.4636 56.3574 63.5131 56.3574 64.6282 56.3692Z" fill="#E4E4E4"/>
<path d="M92.1566 56.9583C92.736 56.7258 93.3496 56.8125 94.0083 56.8874C93.4398 57.3208 92.8125 57.1651 92.1566 56.9583Z" fill="#E8E8E8"/>
<path d="M232.385 56.9918C232.898 56.6884 233.461 56.8401 234.078 56.8677C233.584 57.3602 233 57.1139 232.385 56.9918Z" fill="#E8E8E8"/>
<path d="M77.2902 56.3259C77.3149 56.3633 77.3067 56.4067 77.3081 56.517C77.3163 56.582 77.3122 56.5741 77.3108 56.5682C77.2669 56.5859 77.223 56.6056 77.142 56.5465C77.1557 56.4205 77.2065 56.3751 77.2902 56.3259Z" fill="#E8E8E8"/>
<path d="M77.0859 56.5387C77.1409 56.4697 77.1793 56.4736 77.263 56.5209C77.2438 56.7475 77.1614 56.7357 77.0859 56.5387Z" fill="#A4A4A4"/>
<path d="M177.175 34.9752C177.483 34.4945 177.812 34.0414 178.09 33.5292C178.83 32.162 178.799 30.5427 178.785 28.9214C178.766 26.581 177.89 25.0248 176.596 23.8585C175.104 22.513 173.379 22.7179 171.735 22.5051C170.47 22.3436 169.185 22.4382 167.911 22.4933C167.448 22.513 166.777 22.4244 166.667 23.2419C166.571 23.9432 167.169 24.2072 167.571 24.4298C168.118 24.7312 168.274 25.2316 168.271 26.0669C168.246 32.2034 168.244 38.3419 168.268 44.4804C168.272 45.7924 168.341 47.0453 167.137 47.3033C167.096 47.3132 167.055 47.3605 167.022 47.4038C166.846 47.6402 166.642 47.8943 166.692 48.2647C166.742 48.6213 166.903 48.8301 167.198 48.9227C167.414 48.9897 167.626 49.0665 167.847 49.0685C168.69 49.0704 169.532 49.0685 170.444 49.0685C172.295 49.1 174.082 49.1197 175.84 48.6587C177.137 48.3159 178.293 47.52 179.056 45.8633C180.843 41.9844 180.01 37.1658 177.175 34.9752ZM170.58 32.5028C170.58 30.1802 170.595 27.9522 170.571 25.7241C170.564 25.0307 170.731 24.81 171.204 24.8238C172.231 24.8553 173.244 24.9617 174.232 25.4128C175.355 25.925 175.813 27.1346 176.066 28.6889C176.216 29.6148 176.127 30.4816 175.973 31.3248C175.582 33.4465 174.619 34.1025 173.233 34.2798C172.623 34.3586 172.002 34.2285 171.394 34.3113C170.712 34.4039 170.482 34.0138 170.578 33.0899C170.594 32.9303 170.58 32.7629 170.58 32.5028ZM174.179 46.4976C173.18 46.5488 172.178 46.4858 171.178 46.5173C170.744 46.5311 170.568 46.342 170.572 45.682C170.591 42.93 170.582 40.1759 170.579 37.4239C170.578 37.0358 170.595 36.6536 170.945 36.6654C172.364 36.7206 173.808 36.3758 175.195 36.9412C176.584 37.5066 177.475 38.4699 177.413 41.7736C177.564 44.9492 176.056 46.4011 174.179 46.4976Z" fill="#01455E"/>
<path d="M194.4 47.2955C193.866 46.9921 193.35 46.6611 193.036 45.8791C191.884 43.0147 190.718 40.1602 189.547 37.3116C189.318 36.7521 189.584 36.7048 189.842 36.6615C190.817 36.4999 191.59 35.7573 192.271 34.8255C194.181 32.2113 194.539 27.0716 192.118 24.29C191.203 23.3877 190.228 22.8519 189.193 22.6923C187.026 22.3613 184.843 22.4756 182.666 22.4815C182.497 22.4835 182.323 22.6706 182.158 22.6529C181.781 22.6115 181.725 22.9839 181.651 23.3562C181.561 23.8073 181.826 23.957 182.01 24.024C183.139 24.4416 183.336 25.5015 183.317 27.0657C183.247 32.8102 183.264 38.5566 183.307 44.3011C183.318 45.7569 183.326 47 182.071 47.3112C181.796 47.3782 181.618 47.719 181.65 48.1899C181.682 48.6804 181.902 48.8892 182.202 48.9778C182.355 49.0212 182.511 49.0626 182.666 49.0645C183.805 49.0724 184.943 49.0468 186.081 49.0842C186.367 49.0921 186.625 48.9798 186.855 48.836C187.228 48.6035 187.437 48.2332 187.037 47.6481C186.752 47.2344 186.426 47.0354 186.057 46.8956C185.788 46.7951 185.599 46.6434 185.603 46.1253C185.624 43.3673 185.611 40.6093 185.617 37.8533C185.617 37.6465 185.546 37.3983 185.748 37.2584C186.202 36.9471 187.268 37.3529 187.516 37.9715C188.763 41.0506 190.014 44.1238 191.239 47.2226C191.951 49.0271 192.909 49.559 194.329 48.9069C194.588 48.7868 194.863 48.643 194.873 48.3061C194.884 47.8963 194.735 47.4846 194.4 47.2955ZM186.114 34.8924C185.834 34.8668 185.614 34.8097 185.613 34.2226C185.613 31.376 185.635 28.62 185.599 25.8679C185.588 25.0228 185.782 24.7962 186.342 24.8199C187.351 24.8632 188.346 24.9716 189.323 25.3478C190.36 25.7477 191.008 26.7052 191.281 28.1827C191.646 30.1566 191.527 31.9808 190.463 33.5095C189.946 34.2522 189.255 34.5575 188.606 34.6285C187.779 34.7191 186.953 34.9693 186.114 34.8924Z" fill="#01455E"/>
<path d="M263.774 28.228C263.065 25.7596 261.935 23.9196 260.101 23.039C258.425 22.2333 256.723 22.251 255.057 22.7278C253.682 23.1217 252.493 24.1757 251.597 25.8896C250.251 28.4644 250.011 31.4706 249.858 34.4984C249.731 37.018 249.924 39.5317 250.391 41.9785C250.906 44.6774 251.889 46.8128 253.702 48.117C255.165 49.1709 256.694 49.1295 258.231 49.0468C259.484 48.9818 260.679 48.5149 261.723 47.2974C262.142 46.7675 262.517 46.2691 262.841 45.6702C263.994 43.5387 264.419 40.9974 264.561 38.4443C264.753 35.0027 264.718 31.5159 263.774 28.228ZM262.177 37.6898C262.052 39.4057 261.805 41.0171 261.325 42.5754C260.202 46.2218 257.127 48.2962 254.544 45.1285C253.277 43.5761 252.675 41.5746 252.438 39.2756C252.31 38.0326 252.119 36.7876 252.176 35.5327C252.285 33.1076 252.426 30.6767 253.279 28.49C254.141 26.2777 255.45 24.8869 257.197 24.6899C258.164 24.5815 259.094 25.204 259.853 26.1713C260.516 27.0125 261.034 28.0152 261.455 29.209C262.189 32.0005 262.387 34.7782 262.177 37.6898Z" fill="#01455E"/>
<path d="M122.59 65.7326C122.481 65.2618 122.436 64.8363 122.294 64.4935C121.526 62.6318 119.872 61.8872 118.514 62.7599C117.218 63.5912 116.454 65.9454 116.944 67.9488C117.392 69.7809 119.167 71.5756 120.945 70.3463C122.255 69.4401 122.734 67.8444 122.59 65.7326ZM120.807 67.8976C120.49 68.595 119.796 68.7821 118.995 68.3389H118.993C118.101 66.8929 118.368 65.0431 119.465 64.5211C119.917 64.3063 120.256 64.5821 120.56 64.9367C121.042 65.5041 121.154 67.1333 120.807 67.8976Z" fill="#01455E"/>
<path d="M133.811 70.1454C133.504 69.3771 133.194 68.6048 132.842 67.8759C132.685 67.5489 132.533 67.4682 132.902 67.149C133.44 66.6861 133.862 65.9788 133.819 64.8619C133.649 63.5203 133.065 62.951 132.24 62.6397C131.407 62.3265 130.577 62.5727 129.751 62.4585C129.381 62.4053 129.299 62.622 129.303 63.1204C129.321 65.053 129.31 66.9855 129.31 68.92C129.31 70.6123 129.31 70.5847 130.512 70.5571C130.885 70.5492 130.977 70.3778 130.956 69.8814C130.929 69.2214 130.95 68.5576 130.95 67.677C131.097 68.0493 131.171 68.197 131.22 68.3625C131.671 69.8617 132.263 71.0279 133.595 70.565C133.669 70.5394 133.774 70.7206 133.878 70.5492C133.992 70.3601 133.849 70.2419 133.811 70.1454ZM131.361 65.8153C131.295 65.7996 131.227 65.8114 131.099 65.8035C130.914 65.6439 130.926 65.4272 130.956 65.2539C131.022 64.8796 130.69 64.194 131.327 64.2334C131.696 64.2551 132.126 64.2847 132.152 64.9072C132.181 65.5632 131.862 65.9375 131.361 65.8153Z" fill="#01455E"/>
<path d="M87.8382 67.4682C87.5812 67.5608 87.3134 67.5805 86.9786 67.6021C87.0592 67.2653 87.1439 66.9954 87.1863 66.7137C87.2314 66.4103 87.2833 66.1227 87.4268 65.904C87.5607 66.4004 87.6933 66.8949 87.8382 67.4682Z" fill="white"/>
<path d="M232.27 70.0961C231.654 67.6218 231.076 65.1298 230.443 62.5786C229.927 62.4998 229.451 62.4841 228.976 62.4644C228.713 62.4506 228.6 62.6062 228.511 62.9923C228.033 65.0332 227.512 67.0544 227.024 69.0914C226.911 69.5662 226.599 70.1355 226.797 70.5118C226.919 70.7442 227.436 70.565 227.774 70.5354C228.045 70.5137 228.434 70.7383 228.508 70.1355C228.664 68.8806 229.33 69.4933 229.786 69.3672C230.199 69.2529 230.536 69.3652 230.584 70.1296C230.607 70.494 230.822 70.5512 231.045 70.5433C231.362 70.5334 231.688 70.4822 231.997 70.5591C232.337 70.6438 232.407 70.6457 232.27 70.0961ZM229.92 67.3105C229.723 67.8188 229.42 67.48 229.096 67.6336C229.252 66.9284 229.387 66.3216 229.548 65.5907C229.679 66.2113 229.787 66.7255 229.92 67.3105Z" fill="#01455E"/>
<path d="M194.184 63.9103C193.956 62.947 193.483 62.4644 192.764 62.4624C192.39 62.4604 191.978 62.3284 191.862 63.1854C191.253 65.6971 190.677 68.1419 190.088 70.6378C190.308 70.5965 190.452 70.5531 190.598 70.5453C191.188 70.5118 191.896 70.8605 192.055 69.5209C192.085 69.2608 192.279 69.3692 192.401 69.3652C192.741 69.3495 193.082 69.3711 193.423 69.3554C193.641 69.3455 193.849 69.3711 193.872 69.7533C193.923 70.5965 194.326 70.563 194.748 70.5472C195.069 70.5334 195.393 70.494 195.757 70.6733C195.217 68.3487 194.702 66.1285 194.184 63.9103ZM192.761 67.5863C192.634 67.5391 192.457 67.6848 192.529 67.3736C192.659 66.8102 192.78 66.2428 192.923 65.6026C193.078 66.294 193.218 66.9126 193.368 67.5863H192.761Z" fill="#01455E"/>
</g>
<defs>
<clipPath id="clip0_1_4">
<rect width="265" height="81" fill="white"/>
</clipPath>
</defs>
</svg>
